<?xml version="1.0" encoding="utf-8"?>
<!-- Generator: Adobe Illustrator 16.0.0, SVG Export Plug-In . SVG Version: 6.00 Build 0)  -->
<!DOCTYPE svg PUBLIC "-//W3C//DTD SVG 1.1//EN" "http://www.w3.org/Graphics/SVG/1.1/DTD/svg11.dtd">
<svg version="1.1" id="Layer_1" xmlns="http://www.w3.org/2000/svg" xmlns:xlink="http://www.w3.org/1999/xlink" x="0px" y="0px"
	 width="800px" height="600px" viewBox="0 0 800 600" enable-background="new 0 0 800 600" xml:space="preserve">
<path fill="#0071BC" d="M752.803,295.531c-0.009-0.735-0.025-1.471-0.064-2.202c-0.003-0.047-0.008-0.095-0.011-0.145
	c-0.051-0.87-0.115-1.737-0.206-2.598c-0.045-0.486-0.061-0.97-0.117-1.456l-0.067,0.007c-1.629-12.36-7.438-23.809-16.412-32.812
	c-6.173-6.192-13.733-10.73-21.864-13.525c8.544-10.321,13.356-22.957,14.009-37.14c1.091-23.854-9.979-49.829-29.634-69.481
	l-0.008,0.007c-30.595-30.43-76.31-33.604-108.606-9.567c-8.92-61.646-62.687-110.788-127.503-110.788
	c-59.271,0-109.29,41.094-124.243,95.257c-13.074-22.284-37.185-36.942-64.729-36.942c-21.394,0-42.462,8.732-57.802,24.637
	c-10.657,11.047-17.426,24.294-19.738,38.239c-39.313,5.986-69.402,36.088-74.113,70.539c-23.791,4.608-67.264,21.294-67.264,81.716
	h-0.261c0,22.441,8.913,44.594,25.101,60.64c15.433,15.297,35.779,23.907,57.449,24.116v0.022h0.804h0.763h534.14
	c24.734,0,46.513-9.049,61.33-25.479C746.738,334.172,753.371,315.53,752.803,295.531z"/>
<g>
	<path fill="#363636" d="M83.337,413.05h57.838v16.462h-19.546v65.813h-18.749v-65.813H83.335L83.337,413.05L83.337,413.05z"/>
	<path fill="#363636" d="M170.703,495.318h-18.749V413.05h18.749v32.808h26.525V413.05h18.748v82.269h-18.748v-33.008h-26.525
		V495.318z"/>
	<path fill="#363636" d="M279.011,429.503h-28.32v16.354h27.123v16.453h-27.123v16.561h28.32v16.454h-47.068v-82.272h47.068V429.503
		z"/>
	<path fill="#363636" d="M315.023,413.05h57.838v16.462h-19.546v65.813h-18.748v-65.813h-19.546L315.023,413.05L315.023,413.05z"/>
	<path fill="#363636" d="M402.389,495.318h-18.748V413.05h18.748v32.808h26.523V413.05h18.754v82.269h-18.754v-33.008h-26.523
		V495.318z"/>
	<path fill="#363636" d="M482.375,495.318h-18.744V413.05h18.744V495.318z"/>
	<path fill="#363636" d="M517.083,495.318h-18.745V413.05h18.745l32.711,51.064h0.2V413.05h18.744v82.269h-18.744l-32.711-51.057
		h-0.2V495.318z"/>
	<path fill="#363636" d="M659.101,467.097c-4.489,20.836-21.842,29.717-37.995,29.717c-22.14,0-40.077-19.053-40.077-42.578
		c0-23.637,16.952-42.681,40.077-42.681c14.466,0,24.534,5.385,31.72,14.061l-12.269,13.461
		c-4.792-7.679-11.067-10.569-18.344-10.569c-11.57,0-20.945,11.475-20.945,25.729c0,13.959,9.382,25.329,20.945,25.329
		c8.972,0,17.85-5.785,17.85-15.856h-18.957v-14.46h37.995V467.097L659.101,467.097z"/>
	<path fill="#363636" d="M725.229,419.333l-7.576,14.955c0,0-8.183-5.684-16.664-5.684c-6.384,0-9.773,2.894-9.773,7.382
		c0,4.584,7.777,7.876,17.152,11.864c9.182,3.896,19.253,11.677,19.253,22.439c0,19.642-14.955,26.53-31.015,26.53
		c-19.246,0-30.906-10.87-30.906-10.87l9.375-15.754c0,0,10.959,9.279,20.142,9.279c4.09,0,11.867-0.398,11.867-8.075
		c0-5.983-8.78-8.676-18.55-13.562c-9.871-4.887-15.644-12.563-15.644-21.141c0-15.356,13.558-25.129,26.823-25.129
		C714.658,411.555,725.229,419.333,725.229,419.333z"/>
	<path fill="#363636" d="M102.371,580.095H91.118v-49.374h11.253L122,561.362h0.121v-30.642h11.252v49.374h-11.252l-19.631-30.642
		h-0.119V580.095z"/>
	<path fill="#363636" d="M219.662,540.595h-16.997v9.814h16.278v9.884h-16.278v9.928h16.997v9.874h-28.249v-49.374h28.249V540.595z"
		/>
	<path fill="#363636" d="M273.873,530.721h34.71v9.874h-11.73v39.5h-11.25v-39.5H273.87L273.873,530.721L273.873,530.721z"/>
	<path fill="#363636" d="M393.5,552.385l-7.899,27.71h-12.509l-14.063-49.374h12.507l8.438,33.873h0.298l8.979-33.873h8.499
		l8.976,33.873h0.303l8.437-33.873h12.45l-14.064,49.374h-12.456L393.5,552.385z"/>
	<path fill="#363636" d="M502.234,529.822c13.704,0,24.837,11.133,24.837,25.555c0,14.426-10.648,25.616-24.837,25.616
		c-14.598,0-24.89-11.19-24.89-25.616C477.335,540.955,488.647,529.822,502.234,529.822z M502.234,570.1
		c8.982,0,12.687-7.362,12.687-14.723s-3.949-14.714-12.687-14.714c-8.674,0-12.749,7.354-12.749,14.714
		S493.016,570.1,502.234,570.1z"/>
	<path fill="#363636" d="M600.55,530.721c9.167,0,16.1,4.968,16.1,14.663c0,7.426-4.071,12.388-10.115,14.304l16.997,20.407h-14.303
		l-15.083-19.509v19.509h-11.25v-49.374H600.55z M595.465,552.626c4.24,0,9.329-0.3,9.329-6.465c0-6.171-5.089-6.471-9.329-6.471
		h-1.319v12.936H595.465L595.465,552.626z"/>
	<path fill="#363636" d="M706.053,580.095l-18.195-20.938v20.938h-11.248v-49.374h11.248v20.169l16.938-20.169h13.646l-19.869,23.4
		l22.981,25.974H706.053z"/>
</g>
</svg>
