<?xml version="1.0" encoding="utf-8"?>
<!-- Generator: Adobe Illustrator 19.1.0, SVG Export Plug-In . SVG Version: 6.00 Build 0)  -->
<svg version="1.1" id="Layer_1" xmlns="http://www.w3.org/2000/svg" xmlns:xlink="http://www.w3.org/1999/xlink" x="0px" y="0px"
	 viewBox="-105 197 400 400" style="enable-background:new -105 197 400 400;" xml:space="preserve">
<style type="text/css">
	.st0{fill:#333333;}
	.st1{fill:#0071BC;}
	.st2{fill:#363636;}
</style>
<g>
	<path class="st0" d="M-21,503.2h-4.4v-19.4h4.4l7.8,12.1l0,0v-12.1h4.4v19.4h-4.4l-7.8-12.1l0,0V503.2z"/>
	<path class="st0" d="M25.2,487.6h-6.7v3.8h6.4v3.9h-6.4v3.9h6.7v3.9H14.1v-19.4h11.1V487.6z"/>
	<path class="st0" d="M46.5,483.7h13.7v3.9h-4.6v15.5h-4.4v-15.5h-4.6V483.7L46.5,483.7z"/>
	<path class="st0" d="M93.7,492.3l-3.1,10.9h-4.9l-5.5-19.4H85l3.3,13.4h0.1l3.5-13.4h3.3l3.5,13.4H99l3.3-13.4h4.9l-5.5,19.4h-4.9
		L93.7,492.3z"/>
	<path class="st0" d="M136.5,483.4c5.4,0,9.8,4.4,9.8,10c0,5.7-4.2,10.1-9.8,10.1c-5.8,0-9.8-4.4-9.8-10.1
		C126.7,487.7,131.1,483.4,136.5,483.4z M136.5,499.2c3.5,0,5-2.9,5-5.8c0-2.8-1.6-5.8-5-5.8s-5,2.9-5,5.8
		C131.5,496.3,132.9,499.2,136.5,499.2z"/>
	<path class="st0" d="M175.2,483.7c3.6,0,6.4,2,6.4,5.8c0,2.9-1.6,4.9-4,5.6l6.7,8.1h-5.6l-5.9-7.7v7.7h-4.4v-19.4L175.2,483.7
		L175.2,483.7z M173.2,492.4c1.7,0,3.6-0.1,3.6-2.6s-2-2.6-3.6-2.6h-0.5v5.1H173.2L173.2,492.4z"/>
	<path class="st0" d="M216.7,503.2l-7.2-8.3v8.3h-4.4v-19.4h4.4v8l6.7-8h5.4l-7.9,9.2l9,10.2H216.7z"/>
</g>
<path class="st1" d="M236,389.5c0.7,8.6-2,16.7-7.5,22.9c-5.9,6.6-14.7,10.2-24.6,10.2H-10.4l0,0c-0.1,0-0.2,0-0.3,0h-0.1H-11l0,0
	c-8.7-0.1-16.9-3.5-23-9.6c-6.5-6.4-10-15-10.1-24.1l0,0c0-16.9,11.5-30.6,27.2-33.2c2.1-14.1,14.4-25.6,29.6-28
	c0.9-5.6,3.6-11,7.9-15.4c6.2-6.4,14.6-10,23.2-10c11.1,0,20.8,6,26,15c6.1-21.8,26.1-37.8,49.8-37.8c25.9,0,47.5,19.2,51.1,44.2
	c13-9.7,30.3-8.8,43.3,3.4l-1.4-1.2c10.4,8.4,14,19.8,13.5,29.4c-0.3,5.7-2.2,10.7-5.6,14.8c3.3,1.1,6,3,8.6,5.6
	c3.6,3.6,6.1,8.1,6.8,13.1l0,0c0,0.2,0,0.4,0,0.6C236,389.2,236,389.3,236,389.5z M252.1,308.8c-7.6-10.3-18.9-17.9-31.3-21.1
	c-2.8-0.6-5.7,1.3-6.3,4c-1.1,2.8,0.7,6.4,3.7,7c12.5,3.3,23.3,12.1,29,23.7c4.7,9.5,5.9,20.7,3.3,31c-0.7,2.9,1.4,6,4.4,6.4
	c2.7,0.8,5.7-0.8,6.6-3.4C265.6,340.3,262.1,322.2,252.1,308.8z M216.4,307.2c-4.3-0.8-7.6,4.5-5.7,8.2c0.7,1.6,2.3,2.7,4,3.1
	c6.5,1.7,12.2,6.2,15.2,12.2c2.7,5.3,3.3,11.5,1.8,17.2c-0.8,2.9,1.3,6.1,4.3,6.6c2.7,0.8,5.9-0.8,6.7-3.6
	c2.8-10.2,0.7-21.6-5.5-30.1C232.2,314,224.7,308.8,216.4,307.2z"/>
<g>
	<path class="st2" d="M-28.3,440.3h22.7v6.5h-7.7v25.8h-7.4v-25.8h-7.7L-28.3,440.3L-28.3,440.3z"/>
	<path class="st2" d="M6,472.6h-7.4v-32.3H6v12.9h10.4v-12.9h7.4v32.3h-7.4v-13H6V472.6z"/>
	<path class="st2" d="M48.5,446.8H37.4v6.4H48v6.5H37.4v6.5h11.1v6.5H30v-32.3h18.5L48.5,446.8L48.5,446.8z"/>
	<path class="st2" d="M62.6,440.3h22.7v6.5h-7.7v25.8h-7.4v-25.8h-7.7L62.6,440.3L62.6,440.3z"/>
	<path class="st2" d="M96.9,472.6h-7.4v-32.3h7.4v12.9h10.4v-12.9h7.4v32.3h-7.4v-13H96.9V472.6z"/>
	<path class="st2" d="M128.3,472.6h-7.4v-32.3h7.4V472.6z"/>
	<path class="st2" d="M141.9,472.6h-7.4v-32.3h7.4l12.8,20h0.1v-20h7.4v32.3h-7.4l-12.8-20h-0.1V472.6z"/>
	<path class="st2" d="M197.6,461.5c-1.8,8.2-8.6,11.7-14.9,11.7c-8.7,0-15.7-7.5-15.7-16.7c0-9.3,6.7-16.7,15.7-16.7
		c5.7,0,9.6,2.1,12.4,5.5l-4.8,5.3c-1.9-3-4.3-4.1-7.2-4.1c-4.5,0-8.2,4.5-8.2,10.1c0,5.5,3.7,9.9,8.2,9.9c3.5,0,7-2.3,7-6.2h-7.4
		v-5.7h14.9L197.6,461.5L197.6,461.5z"/>
	<path class="st2" d="M223.6,442.8l-3,5.9c0,0-3.2-2.2-6.5-2.2c-2.5,0-3.8,1.1-3.8,2.9c0,1.8,3.1,3.1,6.7,4.7
		c3.6,1.5,7.6,4.6,7.6,8.8c0,7.7-5.9,10.4-12.2,10.4c-7.6,0-12.1-4.3-12.1-4.3l3.7-6.2c0,0,4.3,3.6,7.9,3.6c1.6,0,4.7-0.2,4.7-3.2
		c0-2.3-3.4-3.4-7.3-5.3c-3.9-1.9-6.1-4.9-6.1-8.3c0-6,5.3-9.9,10.5-9.9C219.4,439.7,223.6,442.8,223.6,442.8z"/>
</g>
</svg>
