<?xml version="1.0" encoding="utf-8"?>
<!-- Generator: Adobe Illustrator 19.1.0, SVG Export Plug-In . SVG Version: 6.00 Build 0)  -->
<svg version="1.1" id="Layer_1" xmlns="http://www.w3.org/2000/svg" xmlns:xlink="http://www.w3.org/1999/xlink" x="0px" y="0px"
	 viewBox="308.8 197 400 400" style="enable-background:new 308.8 197 400 400;" xml:space="preserve">
<style type="text/css">
	.st0{fill:#333333;}
	.st1{fill:#0071BC;}
</style>
<g>
	<path class="st0" d="M400.6,433.4c0.6,0,0.9,0.3,0.9,0.9v5.4c0,0.5-0.3,0.9-0.9,0.9h-6.3v35.2c0,0.6-0.3,0.9-0.9,0.9h-5.6
		c-0.5,0-0.9-0.3-0.9-0.9v-35.2h-6.3c-0.5,0-0.9-0.3-0.9-0.9v-5.4c0-0.5,0.3-0.9,0.9-0.9L400.6,433.4L400.6,433.4z"/>
	<path class="st0" d="M422.2,434.3c0-0.5,0.3-0.9,0.9-0.9h5.6c0.6,0,0.9,0.3,0.9,0.9v41.5c0,0.5-0.3,0.9-0.9,0.9h-5.6
		c-0.5,0-0.9-0.3-0.9-0.9v-17.2h-6.9v17.2c0,0.5-0.3,0.9-0.9,0.9h-5.6c-0.6,0-0.9-0.3-0.9-0.9v-41.5c0-0.5,0.3-0.9,0.9-0.9h5.6
		c0.5,0,0.9,0.3,0.9,0.9v17.2h6.9V434.3z"/>
	<path class="st0" d="M458.7,439.7c0,0.5-0.2,0.9-0.9,0.9h-13.5v10.8h10.3c0.5,0,0.9,0.3,0.9,0.9v5.3c0,0.6-0.3,0.9-0.9,0.9h-10.3
		v10.9h13.5c0.6,0,0.9,0.3,0.9,0.9v5.4c0,0.5-0.2,0.9-0.9,0.9h-19.9c-0.5,0-0.8-0.3-0.8-0.9v-41.5c0-0.5,0.3-0.9,0.8-0.9h19.9
		c0.6,0,0.9,0.3,0.9,0.9V439.7z"/>
	<path class="st0" d="M501.6,433.4c0.6,0,0.9,0.3,0.9,0.9v5.4c0,0.5-0.3,0.9-0.9,0.9h-6.3v35.2c0,0.6-0.3,0.9-0.9,0.9h-5.6
		c-0.5,0-0.9-0.3-0.9-0.9v-35.2h-6.3c-0.5,0-0.9-0.3-0.9-0.9v-5.4c0-0.5,0.3-0.9,0.9-0.9L501.6,433.4L501.6,433.4z"/>
	<path class="st0" d="M523.1,434.3c0-0.5,0.3-0.9,0.9-0.9h5.6c0.6,0,0.9,0.3,0.9,0.9v41.5c0,0.5-0.3,0.9-0.9,0.9H524
		c-0.5,0-0.9-0.3-0.9-0.9v-17.2h-6.9v17.2c0,0.5-0.3,0.9-0.9,0.9h-5.6c-0.6,0-0.9-0.3-0.9-0.9v-41.5c0-0.5,0.3-0.9,0.9-0.9h5.6
		c0.5,0,0.9,0.3,0.9,0.9v17.2h6.9V434.3z"/>
	<path class="st0" d="M544.5,433.4c0.5,0,0.9,0.3,0.9,0.9v41.5c0,0.5-0.3,0.9-0.9,0.9h-5.6c-0.6,0-0.9-0.3-0.9-0.9v-41.5
		c0-0.5,0.3-0.9,0.9-0.9H544.5z"/>
	<path class="st0" d="M575.2,433.4c0.5,0,0.9,0.3,0.9,0.9v41.5c0,0.5-0.3,0.9-0.9,0.9h-5.3c-0.5,0-0.8-0.2-1-0.7l-8.3-23.1h-0.3
		v22.9c0,0.5-0.3,0.9-0.9,0.9h-5.6c-0.5,0-0.9-0.3-0.9-0.9v-41.5c0-0.5,0.3-0.9,0.9-0.9h5.3c0.5,0,0.8,0.2,1,0.7l8.2,22.9h0.3v-22.8
		c0-0.5,0.3-0.9,0.9-0.9H575.2z"/>
	<path class="st0" d="M583.6,441.2c0-5.1,2.7-7.8,7.8-7.8h7.1c5,0,7.8,2.7,7.8,7.8v5.6c0,0.5-0.3,0.9-0.9,0.9H600
		c-0.6,0-0.9-0.3-0.9-0.9v-4.1c0-1.4-0.8-2.2-2.2-2.2h-3.9c-1.5,0-2.2,0.8-2.2,2.2v24.6c0,1.5,0.8,2.2,2.2,2.2h3.9
		c1.4,0,2.2-0.7,2.2-2.2v-7.2h-2.8c-0.6,0-0.9-0.3-0.9-0.9v-5.4c0-0.6,0.3-0.9,0.9-0.9h9.1c0.5,0,0.9,0.3,0.9,0.9v15
		c0,5.1-2.8,7.8-7.8,7.8h-7.1c-5.1,0-7.8-2.7-7.8-7.8L583.6,441.2L583.6,441.2z"/>
	<path class="st0" d="M627.6,433.4c5.1,0,7.8,2.7,7.8,7.8v5.7c0,0.5-0.3,0.9-0.9,0.9h-5.6c-0.5,0-0.9-0.3-0.9-0.9v-4.2
		c0-1.4-0.7-2.2-2.2-2.2h-2.6c-1.4,0-2.2,0.8-2.2,2.2v7.5l12.9,4.2c0.9,0.4,1.4,1,1.4,2v12.5c0,5.1-2.7,7.8-7.8,7.8h-6
		c-5,0-7.8-2.7-7.8-7.8v-5.7c0-0.6,0.3-0.9,0.9-0.9h5.6c0.6,0,0.9,0.3,0.9,0.9v4.2c0,1.5,0.8,2.2,2.2,2.2h2.6c1.4,0,2.2-0.7,2.2-2.2
		v-7.2l-12.8-4.2c-1-0.3-1.5-1-1.5-2v-12.7c0-5.1,2.8-7.8,7.8-7.8H627.6L627.6,433.4z"/>
	<path class="st0" d="M386.2,506.6h-4.5v-19.8h4.5l7.9,12.3h0v-12.3h4.5v19.8h-4.5l-7.9-12.3h0V506.6z"/>
	<path class="st0" d="M433.3,490.8h-6.8v3.9h6.5v4h-6.5v4h6.8v4h-11.3v-19.8h11.3V490.8z"/>
	<path class="st0" d="M455,486.8h13.9v4h-4.7v15.8h-4.5v-15.8H455L455,486.8L455,486.8z"/>
	<path class="st0" d="M503,495.5l-3.2,11.1h-5l-5.6-19.8h5l3.4,13.6h0.1l3.6-13.6h3.4l3.6,13.6h0.1l3.4-13.6h5l-5.6,19.8h-5
		L503,495.5z"/>
	<path class="st0" d="M546.6,486.5c5.5,0,10,4.5,10,10.2c0,5.8-4.3,10.3-10,10.3c-5.9,0-10-4.5-10-10.3
		C536.6,490.9,541.1,486.5,546.6,486.5z M546.6,502.6c3.6,0,5.1-3,5.1-5.9s-1.6-5.9-5.1-5.9c-3.5,0-5.1,3-5.1,5.9
		S542.9,502.6,546.6,502.6z"/>
	<path class="st0" d="M586,486.8c3.7,0,6.5,2,6.5,5.9c0,3-1.6,5-4.1,5.7l6.8,8.2h-5.7l-6-7.8v7.8h-4.5v-19.8H586z M584,495.6
		c1.7,0,3.7-0.1,3.7-2.6c0-2.5-2-2.6-3.7-2.6h-0.5v5.2L584,495.6L584,495.6z"/>
	<path class="st0" d="M628.3,506.6l-7.3-8.4v8.4h-4.5v-19.8h4.5v8.1l6.8-8.1h5.5l-8,9.4l9.2,10.4H628.3z"/>
</g>
<path class="st1" d="M646,381.9c0.7,8.6-2,16.7-7.5,22.9c-5.9,6.6-14.7,10.2-24.6,10.2H399.6v0c-0.1,0-0.2,0-0.3,0c0,0-0.1,0-0.1,0
	H399v0c-8.7-0.1-16.9-3.5-23-9.6c-6.5-6.4-10-15-10.1-24.1h0c0-16.9,11.5-30.6,27.2-33.2c2.1-14.1,14.4-25.6,29.6-28
	c0.9-5.6,3.6-11,7.9-15.4c6.2-6.4,14.6-10,23.2-10c11.1,0,20.8,6,26,15c6.1-21.8,26.1-37.8,49.8-37.8c25.9,0,47.5,19.2,51.1,44.2
	c13-9.7,30.3-8.8,43.3,3.4l-1.4-1.2c10.4,8.4,14,19.8,13.5,29.4c-0.3,5.7-2.2,10.7-5.6,14.8c3.3,1.1,6,3,8.6,5.6
	c3.6,3.6,6.1,8.1,6.8,13.1l0,0c0,0.2,0,0.4,0,0.6C646,381.6,646,381.8,646,381.9z M662.1,301.3c-7.6-10.3-18.9-17.9-31.3-21.1
	c-2.8-0.6-5.7,1.3-6.3,4c-1.1,2.8,0.7,6.4,3.7,7c12.5,3.3,23.3,12.1,29,23.7c4.7,9.5,5.9,20.7,3.3,31c-0.7,2.9,1.4,6,4.4,6.4
	c2.7,0.8,5.7-0.8,6.6-3.4C675.6,332.8,672.1,314.7,662.1,301.3z M626.4,299.6c-4.3-0.8-7.6,4.5-5.7,8.2c0.7,1.6,2.3,2.7,4,3.1
	c6.5,1.7,12.2,6.2,15.2,12.2c2.7,5.3,3.3,11.5,1.8,17.2c-0.8,2.9,1.3,6.1,4.3,6.6c2.7,0.8,5.9-0.8,6.7-3.6
	c2.8-10.2,0.7-21.6-5.5-30.1C642.2,306.4,634.7,301.3,626.4,299.6z"/>
</svg>
