<?xml version="1.0" encoding="utf-8"?>
<!-- Generator: Adobe Illustrator 16.0.4, SVG Export Plug-In . SVG Version: 6.00 Build 0)  -->
<!DOCTYPE svg PUBLIC "-//W3C//DTD SVG 1.1//EN" "http://www.w3.org/Graphics/SVG/1.1/DTD/svg11.dtd">
<svg version="1.1" id="Layer_1" xmlns="http://www.w3.org/2000/svg" xmlns:xlink="http://www.w3.org/1999/xlink" x="0px" y="0px"
	 width="900px" height="600px" viewBox="0 0 900 600" enable-background="new 0 0 900 600" xml:space="preserve">
<path fill-rule="evenodd" clip-rule="evenodd" fill="none" stroke="#FFFFFF" stroke-width="25.3762" stroke-miterlimit="10" d="
	M728.824,104.634L530.059,53.06c-44.029-11.432-116.087-11.432-160.122,0l-198.761,51.574
	c-44.032,11.432-80.066,49.061-80.066,83.626v52.47c0,34.562,0,91.128,0,125.684v52.479c0,34.558,36.034,72.188,80.066,83.617
	l198.761,51.572c44.035,11.439,116.093,11.439,160.122,0l198.766-51.572c44.043-11.43,80.066-49.06,80.066-83.617v-52.479
	c0-34.556,0-91.122,0-125.684v-52.47C808.891,153.695,772.867,116.065,728.824,104.634z"/>
<g>
	<path fill="#FFFFFF" d="M162.064,245.32v47.391h-15.677V245.32H127.98v-12.252h52.668v12.252H162.064z"/>
	<path fill="#FFFFFF" d="M238.341,292.711v-23.143h-25.542v23.143h-15.677v-59.558h15.677v24.504h25.542v-24.504h15.677v59.558
		H238.341z"/>
	<path fill="#FFFFFF" d="M291.808,245.064v11.827h29.416v11.912h-29.416v11.996h33.556v11.912H276.13v-59.558h48.265v11.912H291.808
		z"/>
	<path fill="#FFFFFF" d="M423.484,239.108l-5.9,11.827c-6.518-3.659-14.709-6.211-19.729-6.211c-4.052,0-6.782,1.446-6.782,4.339
		c0,10.295,32.588,4.424,32.588,25.95c0,11.912-10.922,18.208-24.661,18.208c-10.305,0-20.873-3.744-28.184-9.529l6.077-11.656
		c6.342,5.36,15.854,8.934,22.283,8.934c4.932,0,8.015-1.787,8.015-5.19c0-10.55-32.588-4.254-32.588-25.354
		c0-10.976,9.776-17.953,24.573-17.953C408.071,232.472,417.144,235.11,423.484,239.108z"/>
	<path fill="#FFFFFF" d="M495.886,292.711l-0.088-38.713l-14.797,32.757h-10.217l-14.796-32.757v38.713h-14.004v-59.643h17.175
		l16.733,35.479l16.734-35.479h17.086v59.643H495.886z"/>
	<path fill="#FFFFFF" d="M531.914,292.711v-59.558h15.677v59.558H531.914z"/>
	<path fill="#FFFFFF" d="M598.236,245.32v47.391H582.56V245.32h-18.408v-12.252h52.668v12.252H598.236z"/>
	<path fill="#FFFFFF" d="M674.513,292.711v-23.143h-25.541v23.143h-15.678v-59.558h15.678v24.504h25.541v-24.504h15.677v59.558
		H674.513z"/>
	<path fill="#FFFFFF" d="M760.302,239.108l-5.9,11.827c-6.518-3.659-14.709-6.211-19.729-6.211c-4.052,0-6.782,1.446-6.782,4.339
		c0,10.295,32.588,4.424,32.588,25.95c0,11.912-10.922,18.208-24.661,18.208c-10.305,0-20.873-3.744-28.184-9.529l6.077-11.656
		c6.342,5.36,15.854,8.934,22.283,8.934c4.932,0,8.015-1.787,8.015-5.19c0-10.55-32.588-4.254-32.588-25.354
		c0-10.976,9.776-17.953,24.573-17.953C744.89,232.472,753.961,235.11,760.302,239.108z"/>
</g>
<g>
	<path fill="#FFFFFF" d="M147.896,344.089h3.847l-0.135,2.014h-3.9l-0.619,5.914h-1.614l0.619-5.914h-5.407l-0.619,5.914h-1.614
		l0.619-5.914h-3.847l0.135-2.014h3.9l0.673-6.33h-3.847l0.135-2.014h3.927l0.619-6.105h1.614l-0.619,6.105h5.407l0.646-6.105h1.587
		l-0.619,6.105h3.82l-0.108,2.014h-3.927L147.896,344.089z M141.521,337.759l-0.646,6.33h5.407l0.672-6.33H141.521z"/>
	<path fill="#FFFFFF" d="M160.594,352.017v-19.947h-3.82v-2.43h5.945v22.377H160.594z"/>
	<path fill="#FFFFFF" d="M193.521,331.621l-0.915,2.398c-1.695-1.343-3.686-1.887-5.192-1.887c-2.421,0-4.008,1.087-4.008,2.974
		c0,5.754,10.599,2.749,10.572,10.868c0,3.74-2.771,6.138-6.806,6.138c-2.744,0-5.434-1.406-7.209-3.42l0.968-2.302
		c1.749,2.014,4.143,3.164,6.268,3.164c2.717,0,4.412-1.311,4.412-3.452c0.027-5.882-10.572-2.749-10.572-10.772
		c0-3.517,2.609-5.786,6.51-5.786C189.728,329.544,191.961,330.375,193.521,331.621z"/>
	<path fill="#FFFFFF" d="M216.495,342.811c0,5.817-2.959,9.334-7.882,9.334c-4.95,0-7.936-3.517-7.936-9.334V329.64h2.152v13.171
		c0,4.347,2.206,6.872,5.784,6.872c3.578,0,5.73-2.525,5.73-6.872V329.64h2.152V342.811z"/>
	<path fill="#FFFFFF" d="M231.56,329.64c4.654,0,7.344,2.749,7.344,7.513c0,4.954-2.69,7.8-7.344,7.8h-4.923v7.064h-2.152V329.64
		H231.56z M226.637,342.49h4.842c3.39,0,5.354-1.79,5.354-5.274c0-3.389-1.964-5.115-5.354-5.115h-4.842V342.49z"/>
	<path fill="#FFFFFF" d="M252.274,329.64c4.653,0,7.344,2.749,7.344,7.513c0,4.954-2.69,7.8-7.344,7.8h-4.923v7.064h-2.152V329.64
		H252.274z M247.351,342.49h4.842c3.39,0,5.354-1.79,5.354-5.274c0-3.389-1.964-5.115-5.354-5.115h-4.842V342.49z"/>
	<path fill="#FFFFFF" d="M276.325,349.587v2.43h-10.411V329.64h2.152v19.947H276.325z"/>
	<path fill="#FFFFFF" d="M282.539,352.017V329.64h2.152v22.377H282.539z"/>
	<path fill="#FFFFFF" d="M295.263,332.101v7.353h9.496v2.462h-9.496v7.672h10.976v2.43h-13.128V329.64h12.778v2.461H295.263z"/>
	<path fill="#FFFFFF" d="M321.76,344.888c-0.403,0.032-0.834,0.064-1.265,0.064h-5.003v7.064h-2.152V329.64h7.155
		c4.708,0,7.425,2.749,7.425,7.513c0,3.708-1.506,6.201-4.223,7.256l4.411,7.608h-2.448L321.76,344.888z M320.496,342.49
		c3.417,0,5.354-1.79,5.354-5.274c0-3.389-1.937-5.115-5.354-5.115h-5.003v10.39H320.496z"/>
	<path fill="#FFFFFF" d="M363.539,340.828c0,6.298-4.358,11.316-9.846,11.316c-5.516,0-9.873-5.019-9.873-11.316
		c0-6.329,4.357-11.253,9.873-11.253C359.18,329.575,363.539,334.53,363.539,340.828z M345.999,340.828
		c0,4.923,3.497,8.854,7.694,8.854c4.196,0,7.64-3.932,7.64-8.854s-3.443-8.823-7.64-8.823
		C349.496,332.005,345.999,335.905,345.999,340.828z"/>
	<path fill="#FFFFFF" d="M372.335,332.101v7.864h8.797v2.462h-8.797v9.59h-2.152V329.64h11.971v2.461H372.335z"/>
	<path fill="#FFFFFF" d="M403.863,332.101v19.916h-2.151v-19.916h-6.134v-2.461h14.446v2.461H403.863z"/>
	<path fill="#FFFFFF" d="M415.862,352.017V329.64h2.152v22.377H415.862z"/>
	<path fill="#FFFFFF" d="M432.164,332.101v19.916h-2.151v-19.916h-6.134v-2.461h14.446v2.461H432.164z"/>
	<path fill="#FFFFFF" d="M444.054,346.358l-2.098,5.658h-2.287l8.447-22.377h2.232l8.42,22.377h-2.34l-2.1-5.658H444.054z
		 M449.166,332.549l-4.196,11.348h8.447L449.166,332.549z"/>
	<path fill="#FFFFFF" d="M477.896,352.017l-11.299-17.966v17.966h-2.152V329.64h2.232l11.299,17.997V329.64h2.125v22.377H477.896z"
		/>
	<path fill="#FFFFFF" d="M488.551,352.017V329.64h2.152v22.377H488.551z"/>
	<path fill="#FFFFFF" d="M514.51,342.811c0,5.817-2.959,9.334-7.881,9.334c-4.951,0-7.938-3.517-7.938-9.334V329.64h2.152v13.171
		c0,4.347,2.207,6.872,5.785,6.872c3.576,0,5.729-2.525,5.729-6.872V329.64h2.152V342.811z"/>
	<path fill="#FFFFFF" d="M539.555,352.017l-0.027-18.445l-6.859,16.08h-1.291l-6.832-16.08v18.445H522.5V329.64h2.662l6.887,16.111
		l6.861-16.111h2.635v22.377H539.555z"/>
	<path fill="#FFFFFF" d="M567.693,329.64c5.488,0,9.686,4.827,9.686,11.188s-4.225,11.188-9.766,11.188h-7.533V329.64H567.693z
		 M562.232,349.587h5.488c4.197,0,7.479-3.74,7.479-8.727c0-5.02-3.336-8.76-7.559-8.76h-5.408V349.587z"/>
	<path fill="#FFFFFF" d="M586.176,332.101v7.353h9.496v2.462h-9.496v7.672h10.975v2.43h-13.127V329.64h12.777v2.461H586.176z"/>
	<path fill="#FFFFFF" d="M609.203,352.017l-7.641-22.377h2.314l6.482,19.404l6.51-19.404h2.26l-7.693,22.377H609.203z"/>
	<path fill="#FFFFFF" d="M627.012,332.101v7.353h9.496v2.462h-9.496v7.672h10.977v2.43h-13.129V329.64h12.779v2.461H627.012z"/>
	<path fill="#FFFFFF" d="M655.5,349.587v2.43h-10.41V329.64h2.152v19.947H655.5z"/>
	<path fill="#FFFFFF" d="M679.658,340.828c0,6.298-4.359,11.316-9.846,11.316c-5.516,0-9.873-5.019-9.873-11.316
		c0-6.329,4.357-11.253,9.873-11.253C675.299,329.575,679.658,334.53,679.658,340.828z M662.117,340.828
		c0,4.923,3.498,8.854,7.695,8.854c4.195,0,7.639-3.932,7.639-8.854s-3.443-8.823-7.639-8.823
		C665.615,332.005,662.117,335.905,662.117,340.828z"/>
	<path fill="#FFFFFF" d="M693.377,329.64c4.654,0,7.344,2.749,7.344,7.513c0,4.954-2.689,7.8-7.344,7.8h-4.922v7.064h-2.152V329.64
		H693.377z M688.455,342.49h4.842c3.389,0,5.354-1.79,5.354-5.274c0-3.389-1.965-5.115-5.354-5.115h-4.842V342.49z"/>
	<path fill="#FFFFFF" d="M709.17,332.101v7.353h9.496v2.462h-9.496v7.672h10.975v2.43h-13.127V329.64h12.777v2.461H709.17z"/>
	<path fill="#FFFFFF" d="M735.666,344.888c-0.402,0.032-0.834,0.064-1.264,0.064h-5.004v7.064h-2.152V329.64h7.156
		c4.707,0,7.424,2.749,7.424,7.513c0,3.708-1.506,6.201-4.223,7.256l4.412,7.608h-2.449L735.666,344.888z M734.402,342.49
		c3.416,0,5.354-1.79,5.354-5.274c0-3.389-1.938-5.115-5.354-5.115h-5.004v10.39H734.402z"/>
	<path fill="#FFFFFF" d="M760.98,331.621l-0.914,2.398c-1.695-1.343-3.686-1.887-5.191-1.887c-2.422,0-4.01,1.087-4.01,2.974
		c0,5.754,10.6,2.749,10.572,10.868c0,3.74-2.77,6.138-6.805,6.138c-2.744,0-5.434-1.406-7.211-3.42l0.969-2.302
		c1.75,2.014,4.143,3.164,6.27,3.164c2.717,0,4.41-1.311,4.41-3.452c0.027-5.882-10.572-2.749-10.572-10.772
		c0-3.517,2.609-5.786,6.512-5.786C757.188,329.544,759.42,330.375,760.98,331.621z"/>
</g>
<line fill="none" stroke="#FFFFFF" stroke-width="4.4596" stroke-miterlimit="10" x1="137.067" y1="376.974" x2="762.933" y2="376.974"/>
</svg>
